<?xml version="1.0" encoding="UTF-8"?>
<svg xmlns="http://www.w3.org/2000/svg">
  <!-- https://icons.getbootstrap.com/icons/arrow-clockwise/ -->
  <symbol id="arrow_clockwise" viewBox="0 0 16 16">
    <path fill-rule="evenodd" d="M8 3a5 5 0 1 0 4.546 2.914.5.5 0 0 1 .908-.417A6 6 0 1 1 8 2v1z" />
    <path d="M8 4.466V.534a.25.25 0 0 1 .41-.192l2.36 1.966c.12.1.12.284 0 .384L8.41 4.658A.25.25 0 0 1 8 4.466z" />
  </symbol>
  <!-- https://icons.getbootstrap.com/icons/check-circle/ -->
  <symbol id="check" viewBox="0 0 16 16">
    <path d="M8 15A7 7 0 1 1 8 1a7 7 0 0 1 0 14zm0 1A8 8 0 1 0 8 0a8 8 0 0 0 0 16z" />
    <path d="M10.97 4.97a.235.235 0 0 0-.02.022L7.477 9.417 5.384 7.323a.75.75 0 0 0-1.06 1.06L6.97 11.03a.75.75 0 0 0 1.079-.02l3.992-4.99a.75.75 0 0 0-1.071-1.05z" />
  </symbol>
  <!-- https://icons.getbootstrap.com/icons/circle-half/ -->
  <symbol id="circle_half" viewBox="0 0 16 16">
    <path d="M8 15A7 7 0 1 0 8 1v14zm0 1A8 8 0 1 1 8 0a8 8 0 0 1 0 16z" />
  </symbol>
  <!-- https://icons.getbootstrap.com/icons/clock/ -->
  <symbol id="clock" viewBox="0 0 16 16">
    <path d="M8 3.5a.5.5 0 0 0-1 0V9a.5.5 0 0 0 .252.434l3.5 2a.5.5 0 0 0 .496-.868L8 8.71V3.5z" />
    <path d="M8 16A8 8 0 1 0 8 0a8 8 0 0 0 0 16zm7-8A7 7 0 1 1 1 8a7 7 0 0 1 14 0z" />
  </symbol>
  <!-- https://icons.getbootstrap.com/icons/dash-circle/ -->
  <symbol id="dash_circle" viewBox="0 0 16 16">
    <path d="M8 15A7 7 0 1 1 8 1a7 7 0 0 1 0 14zm0 1A8 8 0 1 0 8 0a8 8 0 0 0 0 16z" />
    <path d="M4 8a.5.5 0 0 1 .5-.5h7a.5.5 0 0 1 0 1h-7A.5.5 0 0 1 4 8z" />
  </symbol>
  <!-- https://icons.getbootstrap.com/icons/three-dots/ -->
  <symbol id="dots" viewBox="0 0 16 16">
    <path d="M3 9.5a1.5 1.5 0 1 1 0-3 1.5 1.5 0 0 1 0 3zm5 0a1.5 1.5 0 1 1 0-3 1.5 1.5 0 0 1 0 3zm5 0a1.5 1.5 0 1 1 0-3 1.5 1.5 0 0 1 0 3z" />
  </symbol>
  <!-- https://icons.getbootstrap.com/icons/eject/ -->
  <symbol id="eject" viewBox="0 0 16 16">
    <path d="M7.27 1.047a1 1 0 0 1 1.46 0l6.345 6.77c.6.638.146 1.683-.73 1.683H1.656C.78 9.5.326 8.455.926 7.816L7.27 1.047zM14.346 8.5 8 1.731 1.654 8.5h12.692zM.5 11.5a1 1 0 0 1 1-1h13a1 1 0 0 1 1 1v1a1 1 0 0 1-1 1h-13a1 1 0 0 1-1-1v-1zm14 0h-13v1h13v-1z" />
  </symbol>
  <!-- https://icons.getbootstrap.com/icons/exclamation-circle/ -->
  <symbol id="exclamation" viewBox="0 0 16 16">
    <path d="M8 15A7 7 0 1 1 8 1a7 7 0 0 1 0 14zm0 1A8 8 0 1 0 8 0a8 8 0 0 0 0 16z" />
    <path d="M7.002 11a1 1 0 1 1 2 0 1 1 0 0 1-2 0zM7.1 4.995a.905.905 0 1 1 1.8 0l-.35 3.507a.552.552 0 0 1-1.1 0L7.1 4.995z" />
  </symbol>
  <!-- https://icons.getbootstrap.com/icons/globe/ -->
  <symbol id="globe" viewBox="0 0 16 16">
    <path d="M0 8a8 8 0 1 1 16 0A8 8 0 0 1 0 8m7.5-6.923c-.67.204-1.335.82-1.887 1.855A8 8 0 0 0 5.145 4H7.5zM4.09 4a9.3 9.3 0 0 1 .64-1.539 7 7 0 0 1 .597-.933A7.03 7.03 0 0 0 2.255 4zm-.582 3.5c.03-.877.138-1.718.312-2.5H1.674a7 7 0 0 0-.656 2.5zM4.847 5a12.5 12.5 0 0 0-.338 2.5H7.5V5zM8.5 5v2.5h2.99a12.5 12.5 0 0 0-.337-2.5zM4.51 8.5a12.5 12.5 0 0 0 .337 2.5H7.5V8.5zm3.99 0V11h2.653c.187-.765.306-1.608.338-2.5zM5.145 12q.208.58.468 1.068c.552 1.035 1.218 1.65 1.887 1.855V12zm.182 2.472a7 7 0 0 1-.597-.933A9.3 9.3 0 0 1 4.09 12H2.255a7 7 0 0 0 3.072 2.472M3.82 11a13.7 13.7 0 0 1-.312-2.5h-2.49c.062.89.291 1.733.656 2.5zm6.853 3.472A7 7 0 0 0 13.745 12H11.91a9.3 9.3 0 0 1-.64 1.539 7 7 0 0 1-.597.933M8.5 12v2.923c.67-.204 1.335-.82 1.887-1.855q.26-.487.468-1.068zm3.68-1h2.146c.365-.767.594-1.61.656-2.5h-2.49a13.7 13.7 0 0 1-.312 2.5m2.802-3.5a7 7 0 0 0-.656-2.5H12.18c.174.782.282 1.623.312 2.5zM11.27 2.461c.247.464.462.98.64 1.539h1.835a7 7 0 0 0-3.072-2.472c.218.284.418.598.597.933M10.855 4a8 8 0 0 0-.468-1.068C9.835 1.897 9.17 1.282 8.5 1.077V4z" />
  </symbol>
  <!-- https://icons.getbootstrap.com/icons/info-circle/ -->
  <symbol id="info" viewBox="0 0 16 16">
    <path d="M8 15A7 7 0 1 1 8 1a7 7 0 0 1 0 14zm0 1A8 8 0 1 0 8 0a8 8 0 0 0 0 16z" />
    <path d="m8.93 6.588-2.29.287-.082.38.45.083c.294.07.352.176.288.469l-.738 3.468c-.194.897.105 1.319.808 1.319.545 0 1.178-.252 1.465-.598l.088-.416c-.2.176-.492.246-.686.246-.275 0-.375-.193-.304-.533L8.93 6.588zM9 4.5a1 1 0 1 1-2 0 1 1 0 0 1 2 0z" />
  </symbol>
  <!-- https://icons.getbootstrap.com/icons/moon-stars-fill/ -->
  <symbol id="moon_stars_fill" viewBox="0 0 16 16">
    <path d="M6 .278a.768.768 0 0 1 .08.858 7.208 7.208 0 0 0-.878 3.46c0 4.021 3.278 7.277 7.318 7.277.527 0 1.04-.055 1.533-.16a.787.787 0 0 1 .81.316.733.733 0 0 1-.031.893A8.349 8.349 0 0 1 8.344 16C3.734 16 0 12.286 0 7.71 0 4.266 2.114 1.312 5.124.06A.752.752 0 0 1 6 .278z" />
    <path d="M10.794 3.148a.217.217 0 0 1 .412 0l.387 1.162c.173.518.579.924 1.097 1.097l1.162.387a.217.217 0 0 1 0 .412l-1.162.387a1.734 1.734 0 0 0-1.097 1.097l-.387 1.162a.217.217 0 0 1-.412 0l-.387-1.162A1.734 1.734 0 0 0 9.31 6.593l-1.162-.387a.217.217 0 0 1 0-.412l1.162-.387a1.734 1.734 0 0 0 1.097-1.097l.387-1.162zM13.863.099a.145.145 0 0 1 .274 0l.258.774c.115.346.386.617.732.732l.774.258a.145.145 0 0 1 0 .274l-.774.258a1.156 1.156 0 0 0-.732.732l-.258.774a.145.145 0 0 1-.274 0l-.258-.774a1.156 1.156 0 0 0-.732-.732l-.774-.258a.145.145 0 0 1 0-.274l.774-.258c.346-.115.617-.386.732-.732L13.863.1z" />
  </symbol>
  <!-- https://icons.getbootstrap.com/icons/pause-btn/ -->
  <symbol id="pause" viewBox="0 0 16 16">
    <path d="M6 3.5a.5.5 0 0 1 .5.5v8a.5.5 0 0 1-1 0V4a.5.5 0 0 1 .5-.5zm4 0a.5.5 0 0 1 .5.5v8a.5.5 0 0 1-1 0V4a.5.5 0 0 1 .5-.5z" />
  </symbol>
  <!-- https://icons.getbootstrap.com/icons/play/ -->
  <symbol id="play" viewBox="0 0 16 16">
    <path d="M10.804 8 5 4.633v6.734L10.804 8zm.792-.696a.802.802 0 0 1 0 1.392l-6.363 3.692C4.713 12.69 4 12.345 4 11.692V4.308c0-.653.713-.998 1.233-.696l6.363 3.692z" />
  </symbol>
  <!-- https://icons.getbootstrap.com/icons/skip-forward/ -->
  <symbol id="skip_forward" viewBox="0 0 16 16">
    <path d="M15.5 3.5a.5.5 0 0 1 .5.5v8a.5.5 0 0 1-1 0V8.752l-6.267 3.636c-.52.302-1.233-.043-1.233-.696v-2.94l-6.267 3.636C.713 12.69 0 12.345 0 11.692V4.308c0-.653.713-.998 1.233-.696L7.5 7.248v-2.94c0-.653.713-.998 1.233-.696L15 7.248V4a.5.5 0 0 1 .5-.5zM1 4.633v6.734L6.804 8 1 4.633zm7.5 0v6.734L14.304 8 8.5 4.633z" />
  </symbol>
  <!-- https://icons.getbootstrap.com/icons/stop/ -->
  <symbol id="stop" viewBox="0 0 16 16">
    <path d="M3.5 5A1.5 1.5 0 0 1 5 3.5h6A1.5 1.5 0 0 1 12.5 5v6a1.5 1.5 0 0 1-1.5 1.5H5A1.5 1.5 0 0 1 3.5 11V5zM5 4.5a.5.5 0 0 0-.5.5v6a.5.5 0 0 0 .5.5h6a.5.5 0 0 0 .5-.5V5a.5.5 0 0 0-.5-.5H5z" />
  </symbol>
  <!-- https://icons.getbootstrap.com/icons/sun-fill/ -->
  <symbol id="sun_fill" viewBox="0 0 16 16">
    <path d="M8 12a4 4 0 1 0 0-8 4 4 0 0 0 0 8zM8 0a.5.5 0 0 1 .5.5v2a.5.5 0 0 1-1 0v-2A.5.5 0 0 1 8 0zm0 13a.5.5 0 0 1 .5.5v2a.5.5 0 0 1-1 0v-2A.5.5 0 0 1 8 13zm8-5a.5.5 0 0 1-.5.5h-2a.5.5 0 0 1 0-1h2a.5.5 0 0 1 .5.5zM3 8a.5.5 0 0 1-.5.5h-2a.5.5 0 0 1 0-1h2A.5.5 0 0 1 3 8zm10.657-5.657a.5.5 0 0 1 0 .707l-1.414 1.415a.5.5 0 1 1-.707-.708l1.414-1.414a.5.5 0 0 1 .707 0zm-9.193 9.193a.5.5 0 0 1 0 .707L3.05 13.657a.5.5 0 0 1-.707-.707l1.414-1.414a.5.5 0 0 1 .707 0zm9.193 2.121a.5.5 0 0 1-.707 0l-1.414-1.414a.5.5 0 0 1 .707-.707l1.414 1.414a.5.5 0 0 1 0 .707zM4.464 4.465a.5.5 0 0 1-.707 0L2.343 3.05a.5.5 0 1 1 .707-.707l1.414 1.414a.5.5 0 0 1 0 .708z" />
  </symbol>
  <!-- https://icons.getbootstrap.com/icons/trash/ -->
  <symbol id="trash" viewBox="0 0 16 16">
    <path d="M5.5 5.5A.5.5 0 0 1 6 6v6a.5.5 0 0 1-1 0V6a.5.5 0 0 1 .5-.5zm2.5 0a.5.5 0 0 1 .5.5v6a.5.5 0 0 1-1 0V6a.5.5 0 0 1 .5-.5zm3 .5a.5.5 0 0 0-1 0v6a.5.5 0 0 0 1 0V6z" />
    <path fill-rule="evenodd" d="M14.5 3a1 1 0 0 1-1 1H13v9a2 2 0 0 1-2 2H5a2 2 0 0 1-2-2V4h-.5a1 1 0 0 1-1-1V2a1 1 0 0 1 1-1H6a1 1 0 0 1 1-1h2a1 1 0 0 1 1 1h3.5a1 1 0 0 1 1 1v1zM4.118 4 4 4.059V13a1 1 0 0 0 1 1h6a1 1 0 0 0 1-1V4.059L11.882 4H4.118zM2.5 3V2h11v1h-11z" />
  </symbol>
</svg>
